<mxfile host="app.diagrams.net" modified="2021-05-14T03:47:40.595Z" agent="5.0 (Macintosh; Intel Mac OS X 10_15_7) AppleWebKit/605.1.15 (KHTML, like Gecko) Version/14.1 Safari/605.1.15" etag="l1KlZ3JRstkLvTNJE-Qq" version="14.6.13" type="github">
  <diagram id="i1mZCJ5Isd5YJPBxKUrT" name="Page-1">
    <mxGraphModel dx="1323" dy="913" grid="1" gridSize="10" guides="1" tooltips="1" connect="1" arrows="1" fold="1" page="1" pageScale="1" pageWidth="850" pageHeight="1100" math="0" shadow="0">
      <root>
        <mxCell id="0" />
        <mxCell id="1" parent="0" />
        <mxCell id="U_CwTgUkkdKTZ7Cms2mG-44" style="edgeStyle=none;rounded=0;orthogonalLoop=1;jettySize=auto;html=1;exitX=0.5;exitY=1;exitDx=0;exitDy=0;entryX=0.5;entryY=0;entryDx=0;entryDy=0;" edge="1" parent="1" source="U_CwTgUkkdKTZ7Cms2mG-27" target="U_CwTgUkkdKTZ7Cms2mG-28">
          <mxGeometry relative="1" as="geometry" />
        </mxCell>
        <mxCell id="U_CwTgUkkdKTZ7Cms2mG-27" value="Pod" style="ellipse;whiteSpace=wrap;html=1;aspect=fixed;" vertex="1" parent="1">
          <mxGeometry x="100" y="40" width="40" height="40" as="geometry" />
        </mxCell>
        <mxCell id="U_CwTgUkkdKTZ7Cms2mG-46" style="edgeStyle=none;rounded=0;orthogonalLoop=1;jettySize=auto;html=1;exitX=0.5;exitY=1;exitDx=0;exitDy=0;entryX=0.5;entryY=0;entryDx=0;entryDy=0;" edge="1" parent="1" source="U_CwTgUkkdKTZ7Cms2mG-28" target="U_CwTgUkkdKTZ7Cms2mG-29">
          <mxGeometry relative="1" as="geometry" />
        </mxCell>
        <mxCell id="U_CwTgUkkdKTZ7Cms2mG-28" value="VM" style="ellipse;whiteSpace=wrap;html=1;aspect=fixed;" vertex="1" parent="1">
          <mxGeometry x="100" y="120" width="40" height="40" as="geometry" />
        </mxCell>
        <mxCell id="U_CwTgUkkdKTZ7Cms2mG-47" style="edgeStyle=none;rounded=0;orthogonalLoop=1;jettySize=auto;html=1;entryX=0.5;entryY=0;entryDx=0;entryDy=0;" edge="1" parent="1" source="U_CwTgUkkdKTZ7Cms2mG-29" target="U_CwTgUkkdKTZ7Cms2mG-30">
          <mxGeometry relative="1" as="geometry" />
        </mxCell>
        <mxCell id="U_CwTgUkkdKTZ7Cms2mG-29" value="VMI" style="ellipse;whiteSpace=wrap;html=1;aspect=fixed;" vertex="1" parent="1">
          <mxGeometry x="100" y="200" width="40" height="40" as="geometry" />
        </mxCell>
        <mxCell id="U_CwTgUkkdKTZ7Cms2mG-48" style="edgeStyle=none;rounded=0;orthogonalLoop=1;jettySize=auto;html=1;exitX=0.5;exitY=1;exitDx=0;exitDy=0;entryX=0.5;entryY=0;entryDx=0;entryDy=0;" edge="1" parent="1" source="U_CwTgUkkdKTZ7Cms2mG-30" target="U_CwTgUkkdKTZ7Cms2mG-31">
          <mxGeometry relative="1" as="geometry" />
        </mxCell>
        <mxCell id="U_CwTgUkkdKTZ7Cms2mG-30" value="VN" style="ellipse;whiteSpace=wrap;html=1;aspect=fixed;" vertex="1" parent="1">
          <mxGeometry x="100" y="280" width="40" height="40" as="geometry" />
        </mxCell>
        <mxCell id="U_CwTgUkkdKTZ7Cms2mG-49" style="edgeStyle=none;rounded=0;orthogonalLoop=1;jettySize=auto;html=1;exitX=0.5;exitY=1;exitDx=0;exitDy=0;entryX=0.5;entryY=0;entryDx=0;entryDy=0;" edge="1" parent="1" source="U_CwTgUkkdKTZ7Cms2mG-31" target="U_CwTgUkkdKTZ7Cms2mG-32">
          <mxGeometry relative="1" as="geometry" />
        </mxCell>
        <mxCell id="U_CwTgUkkdKTZ7Cms2mG-31" value="RI" style="ellipse;whiteSpace=wrap;html=1;aspect=fixed;" vertex="1" parent="1">
          <mxGeometry x="100" y="360" width="40" height="40" as="geometry" />
        </mxCell>
        <mxCell id="U_CwTgUkkdKTZ7Cms2mG-50" style="edgeStyle=none;rounded=0;orthogonalLoop=1;jettySize=auto;html=1;exitX=0.5;exitY=1;exitDx=0;exitDy=0;entryX=0.5;entryY=0;entryDx=0;entryDy=0;" edge="1" parent="1" source="U_CwTgUkkdKTZ7Cms2mG-32" target="U_CwTgUkkdKTZ7Cms2mG-33">
          <mxGeometry relative="1" as="geometry" />
        </mxCell>
        <mxCell id="U_CwTgUkkdKTZ7Cms2mG-32" value="RI" style="rounded=1;whiteSpace=wrap;html=1;" vertex="1" parent="1">
          <mxGeometry x="100" y="440" width="40" height="40" as="geometry" />
        </mxCell>
        <mxCell id="U_CwTgUkkdKTZ7Cms2mG-54" style="edgeStyle=none;rounded=0;orthogonalLoop=1;jettySize=auto;html=1;exitX=0.5;exitY=1;exitDx=0;exitDy=0;entryX=0;entryY=0.5;entryDx=0;entryDy=0;" edge="1" parent="1" source="U_CwTgUkkdKTZ7Cms2mG-33" target="U_CwTgUkkdKTZ7Cms2mG-43">
          <mxGeometry relative="1" as="geometry" />
        </mxCell>
        <mxCell id="U_CwTgUkkdKTZ7Cms2mG-33" value="BN" style="rounded=1;whiteSpace=wrap;html=1;" vertex="1" parent="1">
          <mxGeometry x="100" y="520" width="40" height="40" as="geometry" />
        </mxCell>
        <mxCell id="U_CwTgUkkdKTZ7Cms2mG-56" style="edgeStyle=none;rounded=0;orthogonalLoop=1;jettySize=auto;html=1;exitX=0.5;exitY=1;exitDx=0;exitDy=0;entryX=0.5;entryY=0;entryDx=0;entryDy=0;" edge="1" parent="1" source="U_CwTgUkkdKTZ7Cms2mG-34" target="U_CwTgUkkdKTZ7Cms2mG-35">
          <mxGeometry relative="1" as="geometry" />
        </mxCell>
        <mxCell id="U_CwTgUkkdKTZ7Cms2mG-34" value="RI" style="rhombus;whiteSpace=wrap;html=1;" vertex="1" parent="1">
          <mxGeometry x="175" y="685" width="50" height="50" as="geometry" />
        </mxCell>
        <mxCell id="U_CwTgUkkdKTZ7Cms2mG-57" style="edgeStyle=none;rounded=0;orthogonalLoop=1;jettySize=auto;html=1;exitX=0.5;exitY=1;exitDx=0;exitDy=0;entryX=0.5;entryY=0;entryDx=0;entryDy=0;" edge="1" parent="1" source="U_CwTgUkkdKTZ7Cms2mG-35" target="U_CwTgUkkdKTZ7Cms2mG-36">
          <mxGeometry relative="1" as="geometry" />
        </mxCell>
        <mxCell id="U_CwTgUkkdKTZ7Cms2mG-35" value="VN" style="rhombus;whiteSpace=wrap;html=1;" vertex="1" parent="1">
          <mxGeometry x="175" y="765" width="50" height="50" as="geometry" />
        </mxCell>
        <mxCell id="U_CwTgUkkdKTZ7Cms2mG-36" value="VMI" style="rhombus;whiteSpace=wrap;html=1;" vertex="1" parent="1">
          <mxGeometry x="175" y="845" width="50" height="50" as="geometry" />
        </mxCell>
        <mxCell id="U_CwTgUkkdKTZ7Cms2mG-51" style="edgeStyle=none;rounded=0;orthogonalLoop=1;jettySize=auto;html=1;exitX=1;exitY=1;exitDx=0;exitDy=0;entryX=0;entryY=0;entryDx=0;entryDy=0;" edge="1" parent="1" source="U_CwTgUkkdKTZ7Cms2mG-28" target="U_CwTgUkkdKTZ7Cms2mG-41">
          <mxGeometry relative="1" as="geometry">
            <mxPoint x="200" y="160" as="sourcePoint" />
          </mxGeometry>
        </mxCell>
        <mxCell id="U_CwTgUkkdKTZ7Cms2mG-52" style="edgeStyle=none;rounded=0;orthogonalLoop=1;jettySize=auto;html=1;exitX=0.5;exitY=1;exitDx=0;exitDy=0;entryX=0.5;entryY=0;entryDx=0;entryDy=0;" edge="1" parent="1" source="U_CwTgUkkdKTZ7Cms2mG-41" target="U_CwTgUkkdKTZ7Cms2mG-43">
          <mxGeometry relative="1" as="geometry" />
        </mxCell>
        <mxCell id="U_CwTgUkkdKTZ7Cms2mG-41" value="VR" style="ellipse;whiteSpace=wrap;html=1;aspect=fixed;" vertex="1" parent="1">
          <mxGeometry x="180" y="200" width="40" height="40" as="geometry" />
        </mxCell>
        <mxCell id="U_CwTgUkkdKTZ7Cms2mG-55" style="edgeStyle=none;rounded=0;orthogonalLoop=1;jettySize=auto;html=1;exitX=0.5;exitY=1;exitDx=0;exitDy=0;entryX=0.5;entryY=0;entryDx=0;entryDy=0;" edge="1" parent="1" source="U_CwTgUkkdKTZ7Cms2mG-43" target="U_CwTgUkkdKTZ7Cms2mG-34">
          <mxGeometry relative="1" as="geometry" />
        </mxCell>
        <mxCell id="U_CwTgUkkdKTZ7Cms2mG-43" value="BN" style="rhombus;whiteSpace=wrap;html=1;" vertex="1" parent="1">
          <mxGeometry x="175" y="600" width="50" height="50" as="geometry" />
        </mxCell>
      </root>
    </mxGraphModel>
  </diagram>
</mxfile>
